<svg width="114" height="30" viewBox="0 0 114 30" fill="none" xmlns="http://www.w3.org/2000/svg">
<path d="M48.64 6.81V3.39H33.13V24H48.64V20.58H36.88V15.21H47.53V11.79H36.88V6.81H48.64ZM63.9016 3.03V10.89C62.6716 9.15 60.8116 8.13 58.5316 8.13C54.4216 8.13 51.4216 11.49 51.4216 16.23C51.4216 21 54.4216 24.36 58.5316 24.36C60.8116 24.36 62.6716 23.34 63.9016 21.6V24H67.5616V3.03H63.9016ZM59.5216 21.24C56.9116 21.24 55.0516 19.14 55.0516 16.23C55.0516 13.32 56.9116 11.25 59.5216 11.25C62.1016 11.25 63.9016 13.32 63.9016 16.23C63.9016 19.14 62.1016 21.24 59.5216 21.24ZM82.1819 8.49V18.3C81.9419 19.95 80.3519 21.24 78.4319 21.24C76.5119 21.24 75.1619 19.74 75.1619 17.64V8.49H71.6219V18.36C71.6219 21.87 73.9919 24.36 77.3819 24.36C79.4219 24.36 81.2219 23.37 82.1819 21.93V24H85.8419V8.49H82.1819ZM95.0652 24H98.5152L105.085 8.49H101.185L96.7752 19.77L92.2752 8.49H88.4052L95.0652 24ZM109.489 6.15C110.629 6.15 111.559 5.16 111.559 4.05C111.559 2.94 110.629 1.98 109.489 1.98C108.319 1.98 107.389 2.94 107.389 4.05C107.389 5.16 108.319 6.15 109.489 6.15ZM107.629 24H111.289V8.49H107.629V24Z" fill="#0A033C"/>
<rect width="25" height="30" rx="5" fill="#FF6652"/>
<path d="M5.75321 8.12451C5.75272 8.12451 5.75218 8.12451 5.75169 8.12451C5.58145 8.12451 5.42133 8.19088 5.30042 8.31148C5.17817 8.43342 5.11084 8.59579 5.11084 8.76863V18.4271C5.11084 18.7813 5.40011 19.0702 5.75575 19.0711C7.25503 19.0747 9.76692 19.3871 11.4998 21.2005V11.0926C11.4998 10.9726 11.4691 10.8598 11.4112 10.7665C9.98898 8.47603 7.25588 8.12803 5.75321 8.12451Z" fill="white"/>
<path d="M18.8889 18.4272V8.76863C18.8889 8.59579 18.8215 8.43342 18.6993 8.31148C18.5784 8.19088 18.4181 8.12451 18.2481 8.12451C18.2475 8.12451 18.247 8.12451 18.2465 8.12451C16.7439 8.12809 14.0108 8.47609 12.5885 10.7665C12.5306 10.8599 12.5 10.9726 12.5 11.0927V21.2006C14.2329 19.3872 16.7447 19.0747 18.244 19.0711C18.5996 19.0702 18.8889 18.7813 18.8889 18.4272Z" fill="white"/>
<path d="M20.3562 10.3521H19.8891V18.4273C19.8891 19.3316 19.1524 20.069 18.2467 20.0712C16.975 20.0743 14.8781 20.3229 13.3931 21.7285C15.9614 21.0996 18.669 21.5084 20.212 21.86C20.4047 21.9039 20.6038 21.8586 20.7581 21.7355C20.9119 21.6128 21.0002 21.4294 21.0002 21.2325V10.9961C21.0002 10.641 20.7113 10.3521 20.3562 10.3521Z" fill="white"/>
<path d="M4.11103 18.4273V10.3521H3.644C3.28897 10.3521 3 10.641 3 10.9961V21.2323C3 21.4292 3.08824 21.6126 3.24206 21.7354C3.3963 21.8583 3.59521 21.9038 3.78818 21.8598C5.33122 21.5081 8.0388 21.0994 10.6071 21.7283C9.12208 20.3228 7.02523 20.0742 5.75352 20.0712C4.84788 20.069 4.11103 19.3316 4.11103 18.4273Z" fill="white"/>
</svg>
